<mxfile host="app.diagrams.net" modified="2023-11-05T20:58:58.339Z" agent="Mozilla/5.0 (Windows NT 10.0; Win64; x64) AppleWebKit/537.36 (KHTML, like Gecko) Chrome/119.0.0.0 Safari/537.36 Edg/119.0.0.0" etag="yK6P8saCqsZsaD6_uKtJ" version="22.0.8" type="google">
  <diagram name="Page-1" id="W-8oPVq9IJH2rmb56fxM">
    <mxGraphModel grid="1" page="1" gridSize="10" guides="1" tooltips="1" connect="1" arrows="1" fold="1" pageScale="1" pageWidth="850" pageHeight="1100" math="0" shadow="0">
      <root>
        <mxCell id="0" />
        <mxCell id="1" parent="0" />
        <mxCell id="msoCLzQvdEy0_0YQdqC6-32" value="" style="ellipse;whiteSpace=wrap;html=1;aspect=fixed;" vertex="1" parent="1">
          <mxGeometry x="88.75" y="18.75" width="612.5" height="612.5" as="geometry" />
        </mxCell>
        <mxCell id="msoCLzQvdEy0_0YQdqC6-33" value="&lt;span style=&quot;font-size: 14px;&quot;&gt;F&lt;/span&gt;&lt;span style=&quot;font-size: 11.6667px;&quot;&gt;&lt;sub&gt;DCSU&lt;/sub&gt;&lt;/span&gt;" style="ellipse;whiteSpace=wrap;html=1;aspect=fixed;fillColor=#A9C4EB;" vertex="1" parent="1">
          <mxGeometry x="200" y="380" width="80" height="80" as="geometry" />
        </mxCell>
        <mxCell id="msoCLzQvdEy0_0YQdqC6-34" value="&lt;font style=&quot;font-size: 14px;&quot;&gt;Overheating&lt;/font&gt;" style="ellipse;whiteSpace=wrap;html=1;aspect=fixed;fillColor=#FFFFFF;strokeColor=#F19C99;strokeWidth=2;dashed=1;dashPattern=8 8;" vertex="1" parent="1">
          <mxGeometry x="320" y="140" width="50" height="50" as="geometry" />
        </mxCell>
        <mxCell id="msoCLzQvdEy0_0YQdqC6-35" value="&lt;font style=&quot;font-size: 14px;&quot;&gt;H&lt;/font&gt;&lt;font size=&quot;1&quot; style=&quot;&quot;&gt;&lt;sub&gt;BCDU&lt;/sub&gt;&lt;/font&gt;" style="ellipse;whiteSpace=wrap;html=1;aspect=fixed;fillColor=#CCCCCC;" vertex="1" parent="1">
          <mxGeometry x="380" y="240" width="80" height="80" as="geometry" />
        </mxCell>
        <mxCell id="msoCLzQvdEy0_0YQdqC6-36" value="" style="shape=flexArrow;endArrow=classic;html=1;rounded=0;width=0.3225806451612903;endSize=1.064804469273743;endWidth=2.980717246350694;strokeColor=#F19C99;" edge="1" parent="1" source="msoCLzQvdEy0_0YQdqC6-34" target="msoCLzQvdEy0_0YQdqC6-35">
          <mxGeometry width="50" height="50" relative="1" as="geometry">
            <mxPoint x="1035.0033022044959" y="259.6409081756615" as="sourcePoint" />
            <mxPoint x="1081" y="253" as="targetPoint" />
          </mxGeometry>
        </mxCell>
        <mxCell id="msoCLzQvdEy0_0YQdqC6-37" value="" style="shape=flexArrow;endArrow=classic;html=1;rounded=0;width=0.3225806451612903;endSize=1.064804469273743;endWidth=2.980717246350694;strokeColor=#F19C99;" edge="1" parent="1" source="msoCLzQvdEy0_0YQdqC6-42" target="msoCLzQvdEy0_0YQdqC6-35">
          <mxGeometry width="50" height="50" relative="1" as="geometry">
            <mxPoint x="470" y="320" as="sourcePoint" />
            <mxPoint x="530" y="230" as="targetPoint" />
          </mxGeometry>
        </mxCell>
        <mxCell id="msoCLzQvdEy0_0YQdqC6-38" value="&lt;font style=&quot;font-size: 14px;&quot;&gt;Shortcircut&lt;/font&gt;" style="ellipse;whiteSpace=wrap;html=1;aspect=fixed;fillColor=#FFFFFF;strokeColor=#F19C99;strokeWidth=2;dashed=1;dashPattern=8 8;" vertex="1" parent="1">
          <mxGeometry x="410" y="140" width="50" height="50" as="geometry" />
        </mxCell>
        <mxCell id="msoCLzQvdEy0_0YQdqC6-39" value="" style="shape=flexArrow;endArrow=classic;html=1;rounded=0;width=0.3225806451612903;endSize=1.064804469273743;endWidth=2.980717246350694;strokeColor=#F19C99;" edge="1" parent="1" source="msoCLzQvdEy0_0YQdqC6-38" target="msoCLzQvdEy0_0YQdqC6-35">
          <mxGeometry width="50" height="50" relative="1" as="geometry">
            <mxPoint x="1167" y="174" as="sourcePoint" />
            <mxPoint x="1142" y="214" as="targetPoint" />
          </mxGeometry>
        </mxCell>
        <mxCell id="msoCLzQvdEy0_0YQdqC6-40" value="&lt;font style=&quot;font-size: 10px;&quot;&gt;Agent Intervention&lt;/font&gt;" style="ellipse;whiteSpace=wrap;html=1;aspect=fixed;fillColor=#FFFFFF;strokeColor=#F19C99;strokeWidth=2;dashed=1;dashPattern=8 8;direction=north;" vertex="1" parent="1">
          <mxGeometry x="470" y="190" width="50" height="50" as="geometry" />
        </mxCell>
        <mxCell id="msoCLzQvdEy0_0YQdqC6-41" value="" style="shape=flexArrow;endArrow=classic;html=1;rounded=0;width=0.3225806451612903;endSize=1.064804469273743;endWidth=2.980717246350694;strokeColor=#F19C99;" edge="1" parent="1" source="msoCLzQvdEy0_0YQdqC6-40" target="msoCLzQvdEy0_0YQdqC6-35">
          <mxGeometry width="50" height="50" relative="1" as="geometry">
            <mxPoint x="469" y="324" as="sourcePoint" />
            <mxPoint x="504" y="295" as="targetPoint" />
          </mxGeometry>
        </mxCell>
        <mxCell id="msoCLzQvdEy0_0YQdqC6-42" value="&lt;font style=&quot;font-size: 14px;&quot;&gt;Aging&lt;/font&gt;" style="ellipse;whiteSpace=wrap;html=1;aspect=fixed;fillColor=#FFFFFF;strokeColor=#F19C99;strokeWidth=2;dashed=1;dashPattern=8 8;" vertex="1" parent="1">
          <mxGeometry x="250" y="300" width="50" height="50" as="geometry" />
        </mxCell>
        <mxCell id="msoCLzQvdEy0_0YQdqC6-43" value="" style="endArrow=classic;html=1;rounded=0;" edge="1" parent="1" source="msoCLzQvdEy0_0YQdqC6-33" target="msoCLzQvdEy0_0YQdqC6-44">
          <mxGeometry width="50" height="50" relative="1" as="geometry">
            <mxPoint x="304" y="409" as="sourcePoint" />
            <mxPoint x="460" y="350" as="targetPoint" />
          </mxGeometry>
        </mxCell>
        <mxCell id="msoCLzQvdEy0_0YQdqC6-44" value="&lt;font style=&quot;font-size: 10px;&quot;&gt;Under Charging&lt;/font&gt;" style="ellipse;whiteSpace=wrap;html=1;aspect=fixed;fillColor=#FFFFFF;strokeColor=#F19C99;strokeWidth=2;dashed=1;dashPattern=8 8;direction=north;" vertex="1" parent="1">
          <mxGeometry x="345" y="350" width="50" height="50" as="geometry" />
        </mxCell>
        <mxCell id="msoCLzQvdEy0_0YQdqC6-45" value="" style="shape=flexArrow;endArrow=classic;html=1;rounded=0;width=0.3225806451612903;endSize=1.064804469273743;endWidth=2.980717246350694;strokeColor=#F19C99;" edge="1" parent="1" source="msoCLzQvdEy0_0YQdqC6-44" target="msoCLzQvdEy0_0YQdqC6-35">
          <mxGeometry width="50" height="50" relative="1" as="geometry">
            <mxPoint x="1010" y="306" as="sourcePoint" />
            <mxPoint x="1070" y="308" as="targetPoint" />
          </mxGeometry>
        </mxCell>
        <mxCell id="msoCLzQvdEy0_0YQdqC6-46" value="" style="endArrow=classic;html=1;rounded=0;" edge="1" parent="1" source="msoCLzQvdEy0_0YQdqC6-35" target="msoCLzQvdEy0_0YQdqC6-47">
          <mxGeometry width="50" height="50" relative="1" as="geometry">
            <mxPoint x="460" y="370" as="sourcePoint" />
            <mxPoint x="506" y="376" as="targetPoint" />
          </mxGeometry>
        </mxCell>
        <mxCell id="msoCLzQvdEy0_0YQdqC6-47" value="&lt;span style=&quot;font-size: 14px;&quot;&gt;F&lt;sub&gt;MBSU&lt;/sub&gt;&lt;/span&gt;" style="ellipse;whiteSpace=wrap;html=1;aspect=fixed;fillColor=#A9C4EB;" vertex="1" parent="1">
          <mxGeometry x="480" y="340" width="80" height="80" as="geometry" />
        </mxCell>
        <mxCell id="msoCLzQvdEy0_0YQdqC6-48" value="&lt;font size=&quot;1&quot;&gt;Eccentric Behavior&amp;nbsp;&lt;/font&gt;" style="ellipse;whiteSpace=wrap;html=1;aspect=fixed;fillColor=#FFFFFF;strokeColor=#F19C99;strokeWidth=2;dashed=1;dashPattern=8 8;" vertex="1" parent="1">
          <mxGeometry x="320" y="450" width="50" height="50" as="geometry" />
        </mxCell>
        <mxCell id="msoCLzQvdEy0_0YQdqC6-49" value="" style="shape=flexArrow;endArrow=classic;html=1;rounded=0;width=0.3225806451612903;endSize=1.064804469273743;endWidth=2.980717246350694;strokeColor=#F19C99;" edge="1" parent="1" source="msoCLzQvdEy0_0YQdqC6-54" target="msoCLzQvdEy0_0YQdqC6-51">
          <mxGeometry width="50" height="50" relative="1" as="geometry">
            <mxPoint x="340" y="593.5" as="sourcePoint" />
            <mxPoint x="206" y="316.5" as="targetPoint" />
          </mxGeometry>
        </mxCell>
        <mxCell id="msoCLzQvdEy0_0YQdqC6-50" value="" style="shape=flexArrow;endArrow=classic;html=1;rounded=0;width=0.3225806451612903;endSize=1.8800000000000001;endWidth=5.341935483870968;strokeColor=#F19C99;" edge="1" parent="1" source="msoCLzQvdEy0_0YQdqC6-48" target="msoCLzQvdEy0_0YQdqC6-51">
          <mxGeometry width="50" height="50" relative="1" as="geometry">
            <mxPoint x="-11" y="363.5" as="sourcePoint" />
            <mxPoint x="243" y="337.5" as="targetPoint" />
          </mxGeometry>
        </mxCell>
        <mxCell id="msoCLzQvdEy0_0YQdqC6-51" value="&lt;span style=&quot;font-size: 14px;&quot;&gt;F&lt;sub&gt;software&lt;/sub&gt;&lt;/span&gt;" style="ellipse;whiteSpace=wrap;html=1;aspect=fixed;fillColor=#A9C4EB;" vertex="1" parent="1">
          <mxGeometry x="395" y="464.5" width="80" height="80" as="geometry" />
        </mxCell>
        <mxCell id="msoCLzQvdEy0_0YQdqC6-52" value="&lt;font size=&quot;1&quot;&gt;Radiation Loss&lt;/font&gt;" style="ellipse;whiteSpace=wrap;html=1;aspect=fixed;fillColor=#FFFFFF;strokeColor=#F19C99;strokeWidth=2;dashed=1;dashPattern=8 8;" vertex="1" parent="1">
          <mxGeometry x="345" y="559.5" width="50" height="50" as="geometry" />
        </mxCell>
        <mxCell id="msoCLzQvdEy0_0YQdqC6-53" value="" style="shape=flexArrow;endArrow=classic;html=1;rounded=0;width=0.3225806451612903;endSize=1.8800000000000001;endWidth=5.341935483870968;strokeColor=#F19C99;" edge="1" parent="1" source="msoCLzQvdEy0_0YQdqC6-52" target="msoCLzQvdEy0_0YQdqC6-51">
          <mxGeometry width="50" height="50" relative="1" as="geometry">
            <mxPoint x="432" y="603.5" as="sourcePoint" />
            <mxPoint x="413" y="573.5" as="targetPoint" />
          </mxGeometry>
        </mxCell>
        <mxCell id="msoCLzQvdEy0_0YQdqC6-54" value="&lt;font style=&quot;font-size: 10px;&quot;&gt;Bad Update&lt;/font&gt;" style="ellipse;whiteSpace=wrap;html=1;aspect=fixed;fillColor=#FFFFFF;strokeColor=#F19C99;strokeWidth=2;dashed=1;dashPattern=8 8;direction=north;" vertex="1" parent="1">
          <mxGeometry x="480" y="530" width="50" height="50" as="geometry" />
        </mxCell>
        <mxCell id="msoCLzQvdEy0_0YQdqC6-55" value="" style="endArrow=classic;html=1;rounded=0;" edge="1" parent="1" source="msoCLzQvdEy0_0YQdqC6-51" target="msoCLzQvdEy0_0YQdqC6-47">
          <mxGeometry width="50" height="50" relative="1" as="geometry">
            <mxPoint x="510" y="510" as="sourcePoint" />
            <mxPoint x="560" y="460" as="targetPoint" />
          </mxGeometry>
        </mxCell>
        <mxCell id="msoCLzQvdEy0_0YQdqC6-56" value="&lt;span style=&quot;font-size: 14px;&quot;&gt;F&lt;/span&gt;&lt;span style=&quot;font-size: 11.6667px;&quot;&gt;&lt;sub&gt;switch&lt;/sub&gt;&lt;/span&gt;" style="ellipse;whiteSpace=wrap;html=1;aspect=fixed;fillColor=#A9C4EB;" vertex="1" parent="1">
          <mxGeometry x="220" y="190" width="80" height="80" as="geometry" />
        </mxCell>
        <mxCell id="msoCLzQvdEy0_0YQdqC6-57" value="" style="endArrow=classic;html=1;rounded=0;" edge="1" parent="1" source="msoCLzQvdEy0_0YQdqC6-56" target="msoCLzQvdEy0_0YQdqC6-35">
          <mxGeometry width="50" height="50" relative="1" as="geometry">
            <mxPoint x="330" y="280" as="sourcePoint" />
            <mxPoint x="380" y="230" as="targetPoint" />
          </mxGeometry>
        </mxCell>
        <mxCell id="msoCLzQvdEy0_0YQdqC6-59" value="&lt;b&gt;&lt;font style=&quot;font-size: 18px;&quot;&gt;Main Bus Switching Unit&lt;/font&gt;&lt;/b&gt;" style="text;html=1;strokeColor=none;fillColor=none;align=center;verticalAlign=middle;whiteSpace=wrap;rounded=0;" vertex="1" parent="1">
          <mxGeometry x="320" y="50" width="150" height="30" as="geometry" />
        </mxCell>
      </root>
    </mxGraphModel>
  </diagram>
</mxfile>
